<?xml version="1.0" encoding="utf-8"?>
<svg width="150" height="150" viewBox="0 0 150 150" fill="none" xmlns="http://www.w3.org/2000/svg">
  <g>
    <g>
      <path d="M0 75C0 33.5786 33.5786 0 75 0C116.421 0 150 33.5786 150 75C150 116.421 116.421 150 75 150C33.5786 150 0 116.421 0 75Z" fill="#005EF0" fill-rule="evenodd" />
      <g transform="translate(20 15)">
        <path d="M108.487 60.5865L107.863 69.1205L103.353 76.6824L93.848 93.3344L93.709 81.4004L87.881 99.7164L77.613 107.764L80.388 98.7444L71.785 111.094L61.933 116.506L55.18 120.869L48.427 116.506L38.575 111.094L29.972 98.7444L32.747 107.764L22.479 99.7164L16.651 81.4004L16.512 93.3344L7.007 76.6824L2.497 69.1204L1.873 60.5864L7.077 51.9834L0 55.1754C0 55.1754 1.596 40.3274 1.596 40.3274C1.596 40.3274 14.222 25.7684 14.565 25.6224C14.565 25.6224 14.565 25.6224 14.565 25.6224C14.292 25.7284 8.187 27.6994 8.187 27.6994C8.187 27.6994 21.369 11.4644 21.369 11.4644L27.683 8.75845L29.764 2.86144C29.764 2.86144 38.62 0.404442 38.62 0.404442C41.436 -0.377556 44.447 -0.0165558 46.999 1.40944C46.999 1.40944 47.121 1.47744 47.121 1.47744C52.13 4.27544 58.232 4.27544 63.242 1.47744C63.242 1.47744 63.364 1.40944 63.364 1.40944C65.916 -0.015564 68.926 -0.376564 71.743 0.404442C71.743 0.404442 80.599 2.86144 80.599 2.86144L82.68 8.75845L88.994 11.4644L88.994 11.4644C88.994 11.4644 102.173 27.6995 102.173 27.6995C102.173 27.6995 96.072 25.7295 95.795 25.6225C95.795 25.6225 95.795 25.6225 95.795 25.6225C96.142 25.7735 108.764 40.3275 108.764 40.3275C108.764 40.3275 110.36 55.1755 110.36 55.1755L103.283 51.9835L108.487 60.5865L108.487 60.5865Z" fill="#FCFCFC" />
        <g transform="translate(23.313 16.923)">
          <path d="M60.713 21.072L55.576 10.716L48.765 5.631L52.125 0C52.125 0 42.24 4.246 42.24 4.246C41.657 4.719 40.835 4.08 41.151 3.399C41.151 3.399 41.174 3.35 41.174 3.35C41.466 2.71799 40.767 2.088 40.169 2.444C40.169 2.444 31.874 7.386 31.874 7.386C31.874 7.386 23.579 2.444 23.579 2.444C22.981 2.088 22.281 2.718 22.574 3.35C22.574 3.35 22.597 3.399 22.597 3.399C22.912 4.08 22.09 4.72 21.508 4.246C21.508 4.246 11.623 0 11.623 0L14.983 5.631L8.172 10.716C8.172 10.716 3.035 21.072 3.035 21.072C2.784 21.577 2.07301 21.601 1.789 21.114C1.789 21.114 1.661 20.894 1.661 20.894C1.314 20.298 0.406006 20.5 0.344002 21.187C0.344002 21.187 0 24.974 0 24.974L1.544 31.603L6.448 43.227L14.985 40.593L10.717 46.678L16.801 63.297L31.15 56.849L31.15 52.218L28.516 47.132L22.432 45.77L26.246 43.409L28.516 44.317L31.876 44.317L35.236 44.317L37.506 43.409L41.32 45.77L35.235 47.132L32.601 52.218L32.601 56.849L46.95 63.297L53.035 46.678L48.767 40.593L57.304 43.227L62.208 31.603L63.752 24.974C63.752 24.974 63.408 21.187 63.408 21.187C63.346 20.5 62.438 20.299 62.091 20.894C62.091 20.894 61.963 21.114 61.963 21.114C61.675 21.601 60.964 21.577 60.713 21.072C60.713 21.072 60.713 21.072 60.713 21.072ZM17.252 27.244L9.89602 24.066L6.99002 20.252L24.426 24.429L17.252 27.244L17.252 27.244ZM53.85 24.065L46.494 27.243L39.32 24.428L56.756 20.251L53.85 24.065L53.85 24.065Z" fill="#005EF0" />
          <path d="M8.347 1.578L2.058 5.351L0 14.069L5.69099 19.276L4.722 15.401L9.92799 19.034C9.92799 19.034 10.327 18.597 10.327 18.597C12.323 16.408 15.768 16.408 17.764 18.597C17.764 18.597 18.163 19.034 18.163 19.034L23.37 15.401L22.401 19.276L28.092 14.069L26.034 5.351C26.034 5.351 19.745 1.578 19.745 1.578C16.237 -0.526001 11.854 -0.526001 8.347 1.578C8.347 1.578 8.347 1.578 8.347 1.578Z" fill="#005EF0" transform="translate(17.821 60.671)" />
        </g>
      </g>
    </g>
  </g>
</svg>